HIERARCHY
ROOT hip
{
  OFFSET 0 0 0
  CHANNELS 6 Xposition Yposition Zposition Zrotation Yrotation Xrotation
  JOINT abdomen
  {
    OFFSET 0 20.6881 -0.73152
    CHANNELS 3 Zrotation Xrotation Yrotation
    JOINT chest
    {
      OFFSET 0 11.7043 -0.48768
      CHANNELS 3 Zrotation Xrotation Yrotation
      JOINT neck
      {
        OFFSET 0 22.1894 -2.19456
        CHANNELS 3 Zrotation Xrotation Yrotation
        JOINT head
        {
          OFFSET -0.24384 7.07133 1.2192
          CHANNELS 3 Zrotation Xrotation Yrotation
          JOINT leftEye
          {
            OFFSET 4.14528 8.04674 8.04672
            CHANNELS 3 Zrotation Xrotation Yrotation
            End Site
            {
              OFFSET 1 0 0
            }
          }
          JOINT rightEye
          {
            OFFSET -3.6576 8.04674 8.04672
            CHANNELS 3 Zrotation Xrotation Yrotation
            End Site
            {
              OFFSET 1 0 0
            }
          }
        }
      }
      JOINT rCollar
      {
        OFFSET -2.68224 19.2634 -4.8768
        CHANNELS 3 Zrotation Xrotation Yrotation
        JOINT rShldr
        {
          OFFSET -8.77824 -1.95073 1.46304
          CHANNELS 3 Zrotation Xrotation Yrotation
          JOINT rForeArm
          {
            OFFSET -28.1742 -1.7115 0.48768
            CHANNELS 3 Zrotation Xrotation Yrotation
            JOINT rHand
            {
              OFFSET -22.5879 0.773209 7.07136
              CHANNELS 3 Zrotation Xrotation Yrotation
              JOINT rThumb1
              {
                OFFSET -1.2192 -0.487915 3.41376
                CHANNELS 3 Zrotation Xrotation Yrotation
                JOINT rThumb2
                {
                  OFFSET -3.37035 -0.52449 3.41376
                  CHANNELS 3 Zrotation Xrotation Yrotation
                  End Site
                  {
                    OFFSET -1.78271 -1.18214 1.43049
                  }
                }
              }
              JOINT rIndex1
              {
                OFFSET -7.75947 0.938293 5.60832
                CHANNELS 3 Zrotation Xrotation Yrotation
                JOINT rIndex2
                {
                  OFFSET -2.54057 -0.884171 1.56538
                  CHANNELS 3 Zrotation Xrotation Yrotation
                  End Site
                  {
                    OFFSET -1.62519 -0.234802 1.16502
                  }
                }
              }
              JOINT rMid1
              {
                OFFSET -8.24714 1.18213 3.41376
                CHANNELS 3 Zrotation Xrotation Yrotation
                JOINT rMid2
                {
                  OFFSET -3.10165 -0.590103 1.0647
                  CHANNELS 3 Zrotation Xrotation Yrotation
                  End Site
                  {
                    OFFSET -2.48547 -0.328903 0.83742
                  }
                }
              }
              JOINT rRing1
              {
                OFFSET -8.82822 0.546677 1.51678
                CHANNELS 3 Zrotation Xrotation Yrotation
                JOINT rRing2
                {
                  OFFSET -2.60934 -0.819778 -0.0198488
                  CHANNELS 3 Zrotation Xrotation Yrotation
                  End Site
                  {
                    OFFSET -2.33842 -0.294052 0.168128
                  }
                }
              }
              JOINT rPinky1
              {
                OFFSET -8.27202 -0.0477905 -0.4584
                CHANNELS 3 Zrotation Xrotation Yrotation
                JOINT rPinky2
                {
                  OFFSET -1.82734 -0.647385 -0.700984
                  CHANNELS 3 Zrotation Xrotation Yrotation
                  End Site
                  {
                    OFFSET -1.69225 -0.51767 -0.607171
                  }
                }
              }
            }
          }
        }
      }
      JOINT lCollar
      {
        OFFSET 2.68224 19.2634 -4.8768
        CHANNELS 3 Zrotation Xrotation Yrotation
        JOINT lShldr
        {
          OFFSET 8.77824 -1.95073 1.46304
          CHANNELS 3 Zrotation Xrotation Yrotation
          JOINT lForeArm
          {
            OFFSET 28.1742 -1.7115 0.48768
            CHANNELS 3 Zrotation Xrotation Yrotation
            JOINT lHand
            {
              OFFSET 22.5879 0.773209 7.07136
              CHANNELS 3 Zrotation Xrotation Yrotation
              JOINT lThumb1
              {
                OFFSET 1.2192 -0.487915 3.41376
                CHANNELS 3 Zrotation Xrotation Yrotation
                JOINT lThumb2
                {
                  OFFSET 3.37035 -0.52449 3.41376
                  CHANNELS 3 Zrotation Xrotation Yrotation
                  End Site
                  {
                    OFFSET 1.78271 -1.18214 1.43049
                  }
                }
              }
              JOINT lIndex1
              {
                OFFSET 7.75947 0.938293 5.60832
                CHANNELS 3 Zrotation Xrotation Yrotation
                JOINT lIndex2
                {
                  OFFSET 2.54057 -0.884171 1.56538
                  CHANNELS 3 Zrotation Xrotation Yrotation
                  End Site
                  {
                    OFFSET 1.62519 -0.234802 1.16502
                  }
                }
              }
              JOINT lMid1
              {
                OFFSET 8.24714 1.18213 3.41376
                CHANNELS 3 Zrotation Xrotation Yrotation
                JOINT lMid2
                {
                  OFFSET 3.10165 -0.590103 1.0647
                  CHANNELS 3 Zrotation Xrotation Yrotation
                  End Site
                  {
                    OFFSET 2.48547 -0.328903 0.83742
                  }
                }
              }
              JOINT lRing1
              {
                OFFSET 8.82822 0.546677 1.51678
                CHANNELS 3 Zrotation Xrotation Yrotation
                JOINT lRing2
                {
                  OFFSET 2.60934 -0.819778 -0.0198488
                  CHANNELS 3 Zrotation Xrotation Yrotation
                  End Site
                  {
                    OFFSET 2.33842 -0.294052 0.168128
                  }
                }
              }
              JOINT lPinky1
              {
                OFFSET 8.27202 -0.0477905 -0.4584
                CHANNELS 3 Zrotation Xrotation Yrotation
                JOINT lPinky2
                {
                  OFFSET 1.82734 -0.647385 -0.700984
                  CHANNELS 3 Zrotation Xrotation Yrotation
                  End Site
                  {
                    OFFSET 1.69225 -0.51767 -0.607171
                  }
                }
              }
            }
          }
        }
      }
    }
  }
  JOINT rButtock
  {
    OFFSET -8.77824 4.35084 1.2192
    CHANNELS 3 Zrotation Xrotation Yrotation
    JOINT rThigh
    {
      OFFSET 0 -1.70687 -2.19456
      CHANNELS 3 Zrotation Xrotation Yrotation
      JOINT rShin
      {
        OFFSET 0 -36.8199 0.73152
        CHANNELS 3 Zrotation Xrotation Yrotation
        JOINT rFoot
        {
          OFFSET 0.73152 -45.1104 -5.12064
          CHANNELS 3 Zrotation Xrotation Yrotation
          End Site
          {
            OFFSET -1.1221 -3.69964 12.103
          }
        }
      }
    }
  }
  JOINT lButtock
  {
    OFFSET 8.77824 4.35084 1.2192
    CHANNELS 3 Zrotation Xrotation Yrotation
    JOINT lThigh
    {
      OFFSET 0 -1.70687 -2.19456
      CHANNELS 3 Zrotation Xrotation Yrotation
      JOINT lShin
      {
        OFFSET 0 -36.8199 0.73152
        CHANNELS 3 Zrotation Xrotation Yrotation
        JOINT lFoot
        {
          OFFSET -0.73152 -45.1104 -5.12064
          CHANNELS 3 Zrotation Xrotation Yrotation
          End Site
          {
            OFFSET 1.1221 -3.69964 12.103
          }
        }
      }
    }
  }
}
MOTION
Frames:	4
Frame Time:	0.00833333
66.1428 75.4059 -49.0548 183.117 -27.348 -175.834 -10.0968 2.66704 5.86124 1.49928 1.4242 1.2935 7.40673 -16.9479 4.50649 -6.19052 28.9604 4.09155 -0.0 0.0 0.0 -0.0 0.0 0.0 7.72363e-14 -3.33958e-14 8.92046e-14 90.3459 31.6664 -22.7589 -27.679 -28.9543 65.5824 -0.160422 11.342 1.61539 -1.11219e-09 -1.65027e-09 8.9761e-10 -1.91501e-09 -2.86976e-09 1.56019e-09 -1.11219e-09 -1.65026e-09 8.97607e-10 7.73091 5.47488 0.417314 -1.11219e-09 -1.65025e-09 8.97607e-10 2.90554 0.965183 0.102902 -1.11219e-09 -1.65026e-09 8.9761e-10 10.2786 0.731801 0.0259123 -1.1122e-09 -1.65026e-09 8.97622e-10 2.22167 -0.733487 -0.20892 7.70257e-14 -3.3396e-14 8.88567e-14 -87.2454 54.1803 16.0293 28.4307 -35.2691 -75.7911 0.537255 20.3653 -2.99047 1.05507e-09 5.56908e-09 -9.33483e-10 1.80967e-09 9.54545e-09 -1.63143e-09 1.05506e-09 5.56905e-09 -9.33486e-10 -7.73091 5.47488 -0.417314 1.05507e-09 5.56907e-09 -9.3348e-10 -2.90554 0.965183 -0.102902 1.05506e-09 5.56907e-09 -9.33483e-10 -10.2786 0.731801 -0.0259123 1.05508e-09 5.56908e-09 -9.3349e-10 -2.22167 -0.733487 0.20892 -2.03217e-16 0.0 -3.88251e-19 -13.849 -29.7839 -4.66796 -67.8473 88.8239 68.0085 2.57835 17.7925 -22.1882 2.03217e-16 0.0 3.88251e-19 -17.1129 -29.1923 1.48363 0.568797 47.7113 -0.545581 5.7237 -5.26786 26.3112
65.4206 75.2181 -50.2033 182.729 -27.899 -175.541 -10.5233 2.86247 5.0509 1.59099 1.39197 1.05525 7.61808 -16.9184 4.74218 -6.45062 28.7946 4.52793 -0.0 0.0 0.0 -0.0 0.0 0.0 6.01125e-14 3.32428e-15 2.38796e-13 90.9015 30.9514 -23.6791 -27.6715 -28.9214 65.5325 -0.164198 11.4745 1.63476 -1.56566e-09 -2.17363e-09 8.34703e-10 -2.69991e-09 -3.79142e-09 1.45758e-09 -1.56566e-09 -2.17363e-09 8.34699e-10 7.73091 5.47488 0.417314 -1.56566e-09 -2.17361e-09 8.347e-10 2.90554 0.965183 0.102902 -1.56566e-09 -2.17363e-09 8.34704e-10 10.2786 0.731801 0.0259123 -1.56567e-09 -2.17363e-09 8.34717e-10 2.22167 -0.733487 -0.20892 5.99089e-14 3.32865e-15 2.38432e-13 -86.3517 54.3438 14.4068 28.4319 -35.3437 -75.9132 0.538766 20.392 -2.99475 1.94445e-09 1.12183e-08 -1.4764e-09 3.33576e-09 1.92423e-08 -2.58313e-09 1.94443e-09 1.12183e-08 -1.4764e-09 -7.73091 5.47488 -0.417314 1.94444e-09 1.12183e-08 -1.47639e-09 -2.90554 0.965183 -0.102902 1.94444e-09 1.12183e-08 -1.4764e-09 -10.2786 0.731801 -0.0259123 1.94445e-09 1.12183e-08 -1.4764e-09 -2.22167 -0.733487 0.20892 -2.03217e-16 0.0 -3.88251e-19 -13.9055 -32.5565 -4.167 -123.636 88.6693 123.828 2.21074 16.9827 -22.1043 2.03217e-16 0.0 3.88251e-19 -17.6694 -28.3396 1.07121 0.564428 47.922 -0.60366 5.86554 -5.48143 26.4798
64.6744 75.1265 -51.3504 182.426 -28.5304 -175.242 -10.8127 3.02164 4.092 1.65898 1.33335 0.780535 7.81864 -16.832 4.99463 -6.76097 28.6713 5.00761 -0.0 0.0 0.0 -0.0 0.0 0.0 1.56494e-14 6.53685e-14 3.85658e-13 91.4315 30.2664 -24.6093 -27.6715 -28.9221 65.535 -0.170114 11.6758 1.66425 -2.00719e-09 -2.77065e-09 7.12123e-10 -3.4647e-09 -4.84313e-09 1.25253e-09 -2.00719e-09 -2.77065e-09 7.12118e-10 7.73091 5.47488 0.417314 -2.0072e-09 -2.77063e-09 7.12119e-10 2.90554 0.965183 0.102902 -2.00719e-09 -2.77065e-09 7.12123e-10 10.2786 0.731801 0.0259123 -2.0072e-09 -2.77065e-09 7.12138e-10 2.22167 -0.733487 -0.20892 1.54893e-14 6.53822e-14 3.85285e-13 -85.4808 54.5754 12.8991 28.4331 -35.4791 -76.1383 0.538072 20.3796 -2.99277 2.81733e-09 1.7657e-08 -1.8951e-09 4.83469e-09 3.03059e-08 -3.31975e-09 2.81732e-09 1.76569e-08 -1.89511e-09 -7.73091 5.47488 -0.417314 2.81733e-09 1.76569e-08 -1.8951e-09 -2.90554 0.965183 -0.102902 2.81733e-09 1.76569e-08 -1.89511e-09 -10.2786 0.731801 -0.0259123 2.81734e-09 1.76569e-08 -1.89511e-09 -2.22167 -0.733487 0.20892 -2.03217e-16 0.0 -3.88251e-19 -13.8335 -35.2836 -3.67816 -144.576 88.0694 144.804 1.85276 16.1614 -22.006 2.03217e-16 0.0 3.88251e-19 -18.1925 -27.3959 0.522184 0.551292 47.9339 -0.658189 5.87073 -5.51138 26.4865
63.912 75.1337 -52.5099 182.258 -29.2277 -174.96 -10.9724 3.1374 3.04263 1.73192 1.26488 0.485885 8.02023 -16.7095 5.25658 -7.12327 28.5999 5.51173 -0.0 0.0 0.0 -0.0 0.0 0.0 -3.73914e-14 1.34681e-13 5.12335e-13 91.9316 29.597 -25.553 -27.6792 -28.9567 65.5894 -0.175324 11.8478 1.6895 -2.35602e-09 -3.27113e-09 5.61579e-10 -4.06934e-09 -5.72554e-09 9.98164e-10 -2.35602e-09 -3.27112e-09 5.61573e-10 7.73091 5.47488 0.417314 -2.35602e-09 -3.27111e-09 5.61575e-10 2.90554 0.965183 0.102902 -2.35601e-09 -3.27113e-09 5.6158e-10 10.2786 0.731801 0.0259123 -2.35603e-09 -3.27113e-09 5.61595e-10 2.22167 -0.733487 -0.20892 -3.74998e-14 1.34704e-13 5.11966e-13 -84.6115 54.8709 11.4748 28.4334 -35.6454 -76.417 0.536214 20.3465 -2.98746 3.54244e-09 2.38725e-08 -2.18388e-09 6.08028e-09 4.09904e-08 -3.82946e-09 3.54242e-09 2.38725e-08 -2.18389e-09 -7.73091 5.47488 -0.417314 3.54243e-09 2.38725e-08 -2.18388e-09 -2.90554 0.965183 -0.102902 3.54243e-09 2.38725e-08 -2.18389e-09 -10.2786 0.731801 -0.0259123 3.54244e-09 2.38725e-08 -2.18389e-09 -2.22167 -0.733487 0.20892 -2.03217e-16 0.0 -3.88251e-19 -13.6221 -37.8736 -3.18693 -151.094 87.6758 151.357 1.5172 15.3473 -21.9179 2.03217e-16 0.0 3.88251e-19 -18.6427 -26.3402 -0.129313 0.531381 47.7284 -0.706731 5.75993 -5.39038 26.3353
